<svg width="86" height="53" fill="none" xmlns="http://www.w3.org/2000/svg"><path d="M13.155 35.112c-1.655-2.47-2.534-5.162-2.534-7.916 0-4.789 2.641-9.39 7.435-12.963a27.63 27.63 0 0 1 4.511-2.715c-.261-.563-.528-1.126-.771-1.7a9.463 9.463 0 0 1-.753-3.175C11.767 10.88 5.579 18.498 5.579 27.196c0 3.536 1.03 6.89 2.866 9.913.275-.116.555-.229.824-.347 1.295-.566 2.61-1.116 3.886-1.65ZM57.815 40.158a26.714 26.714 0 0 1-2.795 1.816c.185.87.441 1.802.779 2.82.188.57.397 1.35.518 2.231 8.332-4.291 13.823-11.418 13.965-19.51a135.597 135.597 0 0 0-5.244 1.978c-.703 3.949-3.2 7.671-7.223 10.665ZM57.815 14.236c1.616 1.205 2.984 2.528 4.092 3.936a182.855 182.855 0 0 0 5.058-1.62C61.805 8.763 51.17 3.36 38.8 3.117c.967 1.665 1.626 3.44 2.23 5.183 6.384.505 12.258 2.565 16.785 5.935ZM39.584 46.18c-.546.024-1.095.037-1.65.037-4.694 0-9.192-.828-13.185-2.391-2.344.6-4.69 1.365-7.012 2.186 5.537 3.3 12.556 5.278 20.197 5.278 1.49 0 2.955-.082 4.391-.226-.091-.187-.193-.364-.277-.563-.756-1.771-1.561-3.197-2.464-4.323v.003Z" fill="#fff"/><path d="M82.382 14.641h-.076c-1.81.03-3.64.708-5.413 1.268-6.28 1.984-12.462 4.38-18.84 5.98-2.014.505-3.84.76-5.5.76-6.025 0-9.888-3.367-12.77-10.42-1.135-2.784-1.846-5.836-3.43-8.317-.495-.77-1.125-1.455-1.776-2.055a6.947 6.947 0 0 0-4.71-1.854c-1.567 0-3.12.547-4.339 1.678-1.953 1.816-2.534 4.51-1.415 7.14 1.51 3.576 3.544 6.93 4.867 10.566 2.22 6.101.837 10.264-4.778 13.4-4.433 2.48-9.255 4.259-13.928 6.303-2.96 1.297-6.062 2.316-8.866 3.883-.25.14-.457.358-.635.63-1.08 1.633-.12 3.95 1.791 4.335.139.029.275.047.416.058.113.008.225.01.34.01 1.208 0 2.469-.418 3.646-.81 5.897-1.984 11.66-4.486 17.673-5.964 2.743-.674 5.134-1.018 7.233-1.018 6.136 0 9.789 2.949 12.496 9.29.954 2.241 2.51 3.493 4.477 3.493.68 0 1.412-.15 2.184-.463 3.153-1.281 3.363-3.944 2.377-6.945-2.796-8.453-1.018-13.084 7.168-16.93 5.27-2.481 10.916-4.162 16.37-6.243 2.422-.93 4.904-1.779 7.156-3.031.829-.46 2.314-1.066 1.444-2.934-.79-1.481-2.059-1.81-3.162-1.81Z" fill="#2DC156"/></svg>