<svg width="86" height="53" viewBox="0 0 86 53" fill="none" xmlns="http://www.w3.org/2000/svg">
<path d="M13.1552 35.1122C11.4998 32.6418 10.6211 29.9504 10.6211 27.1958C10.6211 22.4075 13.2625 17.8061 18.0561 14.2333C19.4395 13.2019 20.9537 12.2969 22.5672 11.5182C22.3057 10.9551 22.0389 10.3921 21.7957 9.81859C21.3485 8.76885 21.1027 7.69807 21.0426 6.64307C11.7666 10.8788 5.5791 18.498 5.5791 27.1958C5.5791 30.7318 6.60947 34.0862 8.44532 37.1091C8.71991 36.9934 8.99974 36.8802 9.2691 36.7618C10.5636 36.1962 11.879 35.6463 13.1552 35.1122Z" fill="white"></path>
<path d="M57.8151 40.1584C56.9338 40.8161 55.9976 41.4186 55.0195 41.9737C55.2052 42.8445 55.4615 43.7759 55.7989 44.794C55.9871 45.3649 56.1964 46.1437 56.3167 47.0251C64.6486 42.734 70.1404 35.6069 70.2816 27.5142C68.5269 28.1403 66.7695 28.7928 65.0382 29.4926C64.3347 33.4416 61.8373 37.1644 57.8151 40.1584Z" fill="white"></path>
<path d="M57.8147 14.2359C59.4308 15.4409 60.7986 16.7643 61.9074 18.1718C63.602 17.6561 65.2914 17.1142 66.9651 16.5512C61.8054 8.76363 51.1695 3.35972 38.7998 3.11768C39.7674 4.78305 40.4264 6.55892 41.0305 8.30059C47.4142 8.80572 53.2878 10.8657 57.8147 14.2359Z" fill="white"></path>
<path d="M39.5844 46.1806C39.0378 46.2043 38.4886 46.2174 37.9342 46.2174C33.24 46.2174 28.7419 45.3887 24.7486 43.8259C22.4054 44.4258 20.0596 45.1914 17.7373 46.0122C23.2736 49.3114 30.2927 51.2898 37.9342 51.2898C39.4249 51.2898 40.8894 51.2083 42.3251 51.0636C42.2336 50.8768 42.1316 50.7005 42.0479 50.5006C41.2921 48.73 40.4866 47.304 39.5844 46.178V46.1806Z" fill="white"></path>
<path d="M82.3817 14.6411C82.3556 14.6411 82.332 14.6411 82.3059 14.6411C80.4962 14.6701 78.6656 15.3488 76.8925 15.9092C70.6135 17.8929 64.4312 20.2897 58.0528 21.8893C56.0392 22.3944 54.2138 22.6496 52.5532 22.6496C46.5278 22.6496 42.6652 19.2821 39.7833 12.2286C38.6483 9.44506 37.937 6.39319 36.3522 3.91223C35.8579 3.14137 35.2277 2.45733 34.5765 1.85748C33.2611 0.636737 31.556 0.00268555 29.8666 0.00268555C28.3001 0.00268555 26.7467 0.549917 25.528 1.68121C23.5745 3.49655 22.9939 6.19061 24.1132 8.82153C25.6222 12.3969 27.6568 15.7514 28.9801 19.3873C31.2003 25.4884 29.8169 29.6505 24.2021 32.7866C19.7694 35.2675 14.9471 37.046 10.2738 39.0903C7.31341 40.3873 4.21183 41.4055 1.40837 42.9735C1.15731 43.1129 0.950717 43.3313 0.772886 43.6023C-0.307177 45.2361 0.65259 47.5539 2.56428 47.938C2.70288 47.967 2.83887 47.9854 2.98009 47.9959C3.09254 48.0038 3.20499 48.0064 3.32006 48.0064C4.52826 48.0064 5.78877 47.5881 6.9656 47.1961C12.8628 45.2124 18.6266 42.7104 24.6389 41.2318C27.3822 40.5583 29.7725 40.2137 31.8724 40.2137C38.0076 40.2137 41.661 43.1629 44.3677 49.5034C45.3222 51.745 46.8783 52.9973 48.8449 52.9973C49.5248 52.9973 50.257 52.8473 51.0285 52.5343C54.1824 51.253 54.3916 48.5905 53.4057 45.5886C50.6101 37.1355 52.3884 32.5051 60.5739 28.6587C65.8434 26.1777 71.4896 24.4965 76.9448 22.4155C79.3664 21.4868 81.8482 20.637 84.0999 19.3847C84.9289 18.9243 86.4143 18.3191 85.5435 16.4512C84.7537 14.97 83.4853 14.6411 82.3817 14.6411Z" fill="#2DC156"></path>
</svg>
