<svg width="324" height="54" fill="none" xmlns="http://www.w3.org/2000/svg"><path d="M33.306 0c1.044.928 3.441 2.381 4.818 4.474 1.64 2.503 2.374 5.584 3.55 8.392 3.804 9.077 9.256 12.105 18.899 9.746C67.169 21 73.564 18.58 80.06 16.58c1.833-.563 3.727-1.248 5.599-1.279 1.16-.015 2.675.875 3.348 1.826.332.465-.634 2.496-1.493 2.96-2.327 1.263-4.894 2.123-7.4 3.059-5.645 2.1-11.484 3.796-16.935 6.3-8.468 3.88-10.308 8.551-7.416 17.08 1.02 3.029.804 5.714-2.46 7.008-3.1 1.225-5.56-.015-6.89-3.059-3.758-8.59-9.28-11.01-20.407-8.346-6.217 1.491-12.18 4.017-18.28 6.018-1.33.434-2.77.898-4.122.806-1.23-.083-2.405-.897-3.604-1.392.634-1.263.943-3.112 1.98-3.675 2.9-1.582 6.109-2.61 9.171-3.918 4.833-2.062 9.82-3.858 14.407-6.36 5.807-3.166 7.238-7.366 4.941-13.52-1.369-3.668-3.472-7.054-5.034-10.66C23.477 4.877 26.663.137 33.306 0Z" fill="#2DC156"/><path d="M15.52 35.73c-2.768 2.053-4.26 1.536-5.367-1.37-3.72-9.777 1.114-20.55 12.103-26.28 1.299 1.712 1.523 3.074-.495 4.634-7.834 6.018-10.177 13.611-6.241 23.023v-.008ZM71.662 16.997c-1.794.693-2.931 1.134-4.16 1.606-5.947-8.126-14.245-11.413-23.896-12.25-1.23-.106-2.358-1.347-3.248-2.549 12.582-.89 23.03 2.83 31.312 13.186l-.008.007ZM58.925 48.207c-.456-1.172-.82-2.085-1.214-3.09C63.76 41.39 68.67 37.03 69.945 29.72c.178-.997 2.475-1.636 3.99-2.565 1.222 8.149-5.119 16.884-15.01 21.06v-.007ZM43.784 51.988c-8.034.29-15.597-1.278-22.51-5.371l.139-1.385c1.91.13 3.866.06 5.73.419 4.493.874 8.97 1.863 13.401 2.997 1.408.358 2.66 1.316 3.983 2.009-.248.449-.495.89-.743 1.339v-.008ZM265.19 36.119c-1.694 0-3.223-.373-4.588-1.118a8.44 8.44 0 0 1-3.206-3.087c-.773-1.312-1.16-2.786-1.16-4.423 0-1.636.387-3.11 1.16-4.423a8.44 8.44 0 0 1 3.206-3.086c1.365-.745 2.894-1.118 4.588-1.118 1.25 0 2.401.203 3.453.608a7.008 7.008 0 0 1 2.689 1.75l-.79.801c-1.381-1.344-3.149-2.017-5.303-2.017-1.447 0-2.762.324-3.946.973a7.141 7.141 0 0 0-2.787 2.697c-.674 1.134-1.012 2.406-1.012 3.815 0 1.41.338 2.69 1.012 3.84a7.195 7.195 0 0 0 2.787 2.673c1.184.648 2.499.972 3.946.972 2.138 0 3.906-.68 5.303-2.04l.79.801c-.74.778-1.645 1.37-2.714 1.774-1.052.405-2.195.608-3.428.608ZM280.8 27.929h-4.144v8.068h-1.258V18.986h1.258v7.825h4.168l6.191-7.825h1.406l-6.61 8.287 7.054 8.724h-1.48L280.8 27.93ZM302.704 31.21H292.69l-2.195 4.787h-1.357l7.942-17.011h1.258l7.943 17.011h-1.357l-2.22-4.787Zm-.469-1.045-4.538-9.818-4.514 9.818h9.052ZM309.867 18.986h1.258v14.921l11.765-14.921H324v17.011h-1.258V21.1l-11.765 14.897h-1.11V18.986Zm7.005-1.288c-1.151 0-2.08-.26-2.787-.778-.691-.535-1.045-1.264-1.061-2.187h1.011c.017.68.28 1.215.789 1.604.527.389 1.209.583 2.048.583.822 0 1.488-.194 1.998-.583.526-.389.797-.924.814-1.604h1.011c-.017.923-.378 1.652-1.085 2.187-.691.518-1.604.778-2.738.778Z" fill="#fff"/><path d="M193.528 32.977h-6.561l-1.159 2.965h-5.92l7.548-17.011h5.722l7.548 17.011h-6.019l-1.159-2.965Zm-1.603-4.13-1.677-4.278-1.678 4.277h3.355ZM215.446 23.378h-7.424v12.564h-5.723V18.931h13.147v4.447ZM225.69 18.93c1.595 0 2.985.26 4.168.779 1.184.518 2.097 1.263 2.738 2.235.642.972.962 2.107.962 3.403 0 1.296-.32 2.43-.962 3.402-.641.972-1.554 1.717-2.738 2.236-1.183.518-2.573.777-4.168.777h-2.491v4.18h-5.821V18.931h8.312Zm-.37 8.41c.789 0 1.381-.17 1.776-.511.395-.356.592-.85.592-1.482s-.197-1.118-.592-1.459c-.395-.356-.987-.534-1.776-.534h-2.121v3.985h2.121ZM244.345 36.331c-1.859 0-3.528-.38-5.008-1.142-1.479-.762-2.639-1.815-3.477-3.16-.839-1.36-1.258-2.891-1.258-4.592 0-1.702.419-3.225 1.258-4.57.838-1.36 1.998-2.421 3.477-3.183 1.48-.761 3.149-1.142 5.008-1.142 1.858 0 3.527.38 5.007 1.142 1.479.762 2.639 1.823 3.477 3.184.839 1.345 1.258 2.867 1.258 4.569 0 1.7-.419 3.232-1.258 4.593-.838 1.344-1.998 2.397-3.477 3.159-1.48.761-3.149 1.142-5.007 1.142Zm0-4.642c.723 0 1.373-.17 1.948-.51a3.843 3.843 0 0 0 1.406-1.482c.345-.648.518-1.402.518-2.26 0-.86-.173-1.604-.518-2.236-.345-.648-.814-1.142-1.406-1.483a3.623 3.623 0 0 0-1.948-.534c-.724 0-1.382.178-1.974.534-.575.34-1.036.835-1.381 1.483-.345.632-.518 1.377-.518 2.236 0 .858.173 1.612.518 2.26a3.91 3.91 0 0 0 1.381 1.482c.592.34 1.25.51 1.974.51Z" fill="#2DC156"/><path d="M120.496 31.495v7.777h-5.328v-3.33h-9.817v3.33h-5.328v-7.777h.494c1.003 0 1.71-.624 2.121-1.871.411-1.248.674-3.087.789-5.517l.197-5.176h14.602v12.564h2.27Zm-12.012-6.902c-.066 1.637-.198 3.03-.395 4.18-.197 1.134-.502 2.041-.913 2.722h5.328v-8.117h-3.971l-.049 1.215ZM130.763 18.93c1.595 0 2.984.26 4.168.779 1.184.518 2.097 1.263 2.738 2.235s.962 2.107.962 3.403c0 1.296-.321 2.43-.962 3.402s-1.554 1.717-2.738 2.236c-1.184.518-2.573.777-4.168.777h-2.492v4.18h-5.821V18.931h8.313Zm-.37 8.41c.789 0 1.381-.17 1.776-.511.394-.356.591-.85.591-1.482s-.197-1.118-.591-1.459c-.395-.356-.987-.534-1.776-.534h-2.122v3.985h2.122ZM149.417 36.331c-1.858 0-3.527-.38-5.007-1.142-1.48-.762-2.639-1.815-3.478-3.16-.838-1.36-1.258-2.891-1.258-4.592 0-1.702.42-3.225 1.258-4.57.839-1.36 1.998-2.421 3.478-3.183 1.48-.761 3.149-1.142 5.007-1.142 1.858 0 3.527.38 5.007 1.142 1.48.762 2.639 1.823 3.478 3.184.838 1.345 1.258 2.867 1.258 4.569 0 1.7-.42 3.232-1.258 4.593-.839 1.344-1.998 2.397-3.478 3.159-1.48.761-3.149 1.142-5.007 1.142Zm0-4.642c.724 0 1.373-.17 1.949-.51a3.84 3.84 0 0 0 1.405-1.482c.346-.648.518-1.402.518-2.26 0-.86-.172-1.604-.518-2.236-.345-.648-.813-1.142-1.405-1.483a3.626 3.626 0 0 0-1.949-.534c-.723 0-1.381.178-1.973.534-.576.34-1.036.835-1.381 1.483-.346.632-.518 1.377-.518 2.236 0 .858.172 1.612.518 2.26a3.902 3.902 0 0 0 1.381 1.482c.592.34 1.25.51 1.973.51ZM178.274 18.93v17.012h-5.821v-6.27h-5.377v6.27h-5.821V18.931h5.821v6.027h5.377V18.93h5.821Z" fill="#fff"/></svg>