<svg width="16" height="16" fill="none" xmlns="http://www.w3.org/2000/svg"><g clip-path="url('#clip0_3258_53')"><path d="M9.467 10.841A8.099 8.099 0 0 1 5.164 6.53l2.27-2.271L3.259.081 1.144 2.195A3.929 3.929 0 0 0 0 5c0 4.832 6.168 11 11 11a3.93 3.93 0 0 0 2.805-1.144l2.114-2.114-4.177-4.177-2.275 2.276Zm3.396 3.072a2.606 2.606 0 0 1-1.863.754c-4.155 0-9.667-5.512-9.667-9.667a2.607 2.607 0 0 1 .754-1.862l1.171-1.171L5.55 4.258 3.593 6.215l.164.409a9.58 9.58 0 0 0 5.63 5.624l.404.154 1.951-1.951 2.291 2.291-1.17 1.171Z" fill="#282828"/><path d="M16 4.667v-3A1.659 1.659 0 0 0 14.353 0h-3.02v1.333h2.41L10 5.08l.94.943 3.727-3.728v2.372H16Z" fill="#03DA80"/></g><defs><clipPath id="clip0_3258_53"><path fill="#fff" d="M0 0h16v16H0z"/></clipPath></defs></svg>