<?xml version="1.0" encoding="utf-8"?>
<!-- Generator: Adobe Illustrator 27.0.0, SVG Export Plug-In . SVG Version: 6.00 Build 0)  -->
<svg version="1.1" id="Layer_1" xmlns="http://www.w3.org/2000/svg" xmlns:xlink="http://www.w3.org/1999/xlink" x="0px" y="0px"
     viewBox="0 0 1438 310" style="enable-background:new 0 0 1438 310;">
<style type="text/css">
	.st0{fill:#009228;}
	.st1{fill:#2DC156;}
	.st2{fill:#0C3311;}
</style>
    <g>
	<path class="st0" d="M571.9,138.3c87.6-3.3,146.5-11.9,187.1-23.2C696.3,84.6,730.8,42,638,42c-64.5,0-142.3,20.6-208.6,43.3
		C449,106.1,484.4,126.7,571.9,138.3z"/>
        <path class="st1" d="M487.3,139.8c30.8,0,58.9-0.5,84.6-1.5c-87.5-11.7-122.8-32.3-142.5-53C399,53.3,406,21,316,21
		C216.4,21,91.2,60.6,0,95.6v156.1c40-36.3,120.5-79.9,282-100.2C339.5,144.2,407.4,139.8,487.3,139.8z"/>
        <path class="st2" d="M962.6,3C821.8,3,900.4,75.7,759,115.1c-40.7,11.3-99.6,19.9-187.1,23.2c-25.6,1-53.7,1.5-84.6,1.5
		c-79.9,0-147.8,4.3-205.3,11.6C120.5,171.8,40,215.3,0,251.6v39.7c52-32.8,138.5-65.8,282-82.1c58.2-6.6,125.9-10.5,204.4-10.5
		c207.8,0,300.3-21.9,347.4-48.7c6.7-3.8,12.4-7.7,17.5-11.7c16.3-12.7,25.2-26,33.4-38.2c17.8-26.5,32.2-48,111.5-48
		c146.5,0,340.6,73.3,441.8,116.2v-28.4C1438,139.8,1155.9,3,962.6,3z"/>
        <path class="st2" d="M996.2,60c-51,0-72.8,9.1-86.1,20.9c-6.9,6.1-11.9,13.3-17.7,22c-0.4,0.6-0.8,1.1-1.1,1.7
		c-5.4,8.1-11.5,17.1-20,26.2c-2.7,2.9-5.7,5.9-9,8.8c-4.3,3.8-9.2,7.6-14.6,11.2c-46.2,30.9-138.7,55.8-361.2,55.8
		c-78.7,0-146.3,3.9-204.4,10.6c-139.9,16-224.5,48-275.4,79.4c-2.3,1.4-4.4,2.8-6.6,4.2v5.2v4h1438V176.9
		c-30-12.8-68.6-28.4-111.9-44.1C1224.7,96.2,1098.3,60,996.2,60z"/>
        <path class="st1" d="M884.7,100c-8.2,12.2-17.1,25.5-33.4,38.2c-5.1,4-10.8,7.9-17.5,11.7c-47.1,26.8-139.5,48.7-347.4,48.7
		c-78.5,0-146.2,3.9-204.4,10.5C138.5,225.5,52,258.5,0,291.3v9.5c2.1-1.4,4.3-2.8,6.6-4.2c50.9-31.4,135.5-63.4,275.4-79.4
		c58.1-6.7,125.7-10.6,204.4-10.6c222.5,0,315-24.9,361.2-55.8c5.5-3.7,10.3-7.4,14.6-11.2c3.3-2.9,6.3-5.8,9-8.8
		c8.5-9.1,14.6-18.2,20-26.2c0.4-0.6,0.8-1.1,1.1-1.7c5.8-8.6,10.9-15.8,17.7-22c13.3-11.8,35-20.9,86.1-20.9
		c102.1,0,228.5,36.2,329.9,72.8c43.3,15.6,81.9,31.3,111.9,44.1v-8.7C1336.8,125.3,1142.7,52,996.2,52
		C916.9,52,902.5,73.5,884.7,100z"/>
</g>
</svg>
