<svg width="324" height="54" viewBox="0 0 324 54" fill="none" xmlns="http://www.w3.org/2000/svg">
<path d="M33.3061 0C34.3501 0.928226 36.7473 2.38143 38.1238 4.47375C39.7632 6.97691 40.4978 10.0583 41.6732 12.8658C45.4779 21.9427 50.9296 24.9708 60.5727 22.6122C67.169 20.9992 73.5642 18.5797 80.0599 16.5787C81.8926 16.0157 83.7872 15.3309 85.6586 15.3005C86.8186 15.2853 88.3343 16.1755 89.007 17.1265C89.3395 17.5906 88.3729 19.6221 87.5145 20.0862C85.1869 21.3492 82.6195 22.209 80.114 23.1448C74.4689 25.2447 68.6305 26.9414 63.1787 29.4446C54.7111 33.3248 52.8706 37.9964 55.7628 46.5254C56.7835 49.5536 56.567 52.2394 53.3037 53.5328C50.2027 54.7577 47.7436 53.5176 46.4136 50.4742C42.6553 41.8843 37.1339 39.4648 26.0061 42.1278C19.7888 43.619 13.8266 46.145 7.72528 48.146C6.3952 48.5797 4.95686 49.0438 3.60359 48.9525C2.37404 48.8688 1.19862 48.0547 0 47.5602C0.634107 46.2972 0.943428 44.4483 1.97965 43.8853C4.87953 42.3028 8.08874 41.2756 11.151 39.967C15.9841 37.9051 20.9719 36.1095 25.5576 33.6063C31.3651 30.4413 32.7957 26.2414 30.499 20.0862C29.1303 16.419 27.0269 13.0332 25.4648 9.42682C23.4774 4.87699 26.6634 0.136951 33.3061 0Z" fill="#2DC156"/>
<path d="M15.52 35.7291C12.7516 37.7834 11.2592 37.266 10.1533 34.3596C6.43375 24.5828 11.2669 13.8093 22.2555 8.08013C23.5547 9.79202 23.7789 11.1539 21.7606 12.7137C13.927 18.7319 11.5839 26.3251 15.52 35.7367V35.7291Z" fill="white"/>
<path d="M71.6618 16.9972C69.8677 17.6896 68.7309 18.1308 67.5014 18.6026C61.5547 10.4768 53.2572 7.18995 43.6064 6.35302C42.3768 6.24651 41.2478 5.00633 40.3585 3.80421C52.9401 2.91402 63.3874 6.63454 71.6695 16.9896L71.6618 16.9972Z" fill="white"/>
<path d="M58.9255 48.2069C58.4692 47.0352 58.1058 46.1222 57.7114 45.1179C63.7586 41.3898 68.6691 37.0301 69.945 29.7185C70.1229 28.7218 72.4196 28.0826 73.9353 27.1544C75.1571 35.303 68.816 44.0375 58.9255 48.2145V48.2069Z" fill="white"/>
<path d="M43.7842 51.9883C35.7496 52.2774 28.1867 50.7101 21.2734 46.6167C21.3198 46.1526 21.3662 45.6961 21.4126 45.232C23.3227 45.3613 25.2791 45.2929 27.1428 45.6505C31.6357 46.5254 36.1131 47.5145 40.5441 48.6482C41.9515 49.0058 43.2043 49.9644 44.5266 50.6568C44.2791 51.1057 44.0317 51.547 43.7842 51.9959V51.9883Z" fill="white"/>
<path d="M265.19 36.1186C263.496 36.1186 261.967 35.746 260.602 35.0007C259.254 34.2555 258.185 33.2267 257.396 31.9144C256.623 30.6021 256.236 29.1278 256.236 27.4914C256.236 25.8551 256.623 24.3808 257.396 23.0684C258.185 21.7561 259.254 20.7274 260.602 19.9821C261.967 19.2368 263.496 18.8642 265.19 18.8642C266.44 18.8642 267.591 19.0667 268.643 19.4717C269.695 19.8606 270.592 20.4438 271.332 21.2215L270.542 22.0235C269.161 20.6787 267.393 20.0064 265.239 20.0064C263.792 20.0064 262.477 20.3304 261.293 20.9785C260.109 21.6265 259.18 22.5257 258.506 23.676C257.832 24.8101 257.494 26.0819 257.494 27.4914C257.494 28.9009 257.832 30.1808 258.506 31.3311C259.18 32.4652 260.109 33.3563 261.293 34.0044C262.477 34.6524 263.792 34.9764 265.239 34.9764C267.377 34.9764 269.145 34.296 270.542 32.9351L271.332 33.737C270.592 34.5147 269.687 35.1061 268.618 35.5111C267.566 35.9161 266.423 36.1186 265.19 36.1186Z" fill="white"/>
<path d="M280.8 27.9289H276.656V35.9971H275.398V18.9857H276.656V26.811H280.824L287.015 18.9857H288.421L281.811 27.2727L288.865 35.9971H287.385L280.8 27.9289Z" fill="white"/>
<path d="M302.704 31.2096H292.69L290.495 35.9971H289.138L297.08 18.9857H298.338L306.281 35.9971H304.924L302.704 31.2096ZM302.235 30.1646L297.697 20.3466L293.183 30.1646H302.235Z" fill="white"/>
<path d="M309.867 18.9857H311.125V33.9072L322.89 18.9857H324V35.9971H322.742V21.1L310.977 35.9971H309.867V18.9857ZM316.872 17.6977C315.721 17.6977 314.792 17.4385 314.085 16.92C313.394 16.3854 313.04 15.6563 313.024 14.7329H314.035C314.052 15.4133 314.315 15.948 314.824 16.3368C315.351 16.7256 316.033 16.92 316.872 16.92C317.694 16.92 318.36 16.7256 318.87 16.3368C319.396 15.948 319.667 15.4133 319.684 14.7329H320.695C320.678 15.6563 320.317 16.3854 319.61 16.92C318.919 17.4385 318.006 17.6977 316.872 17.6977Z" fill="white"/>
<path d="M193.528 32.9774H186.967L185.808 35.9423H179.888L187.436 18.9309H193.158L200.706 35.9423H194.687L193.528 32.9774ZM191.925 28.8461L190.248 24.5689L188.57 28.8461H191.925Z" fill="#2DC156"/>
<path d="M215.446 23.3781H208.022V35.9423H202.299V18.9309H215.446V23.3781Z" fill="#2DC156"/>
<path d="M225.69 18.9309C227.285 18.9309 228.675 19.1901 229.858 19.7085C231.042 20.227 231.955 20.9722 232.596 21.9443C233.238 22.9164 233.558 24.0505 233.558 25.3466C233.558 26.6427 233.238 27.7768 232.596 28.7489C231.955 29.721 231.042 30.4662 229.858 30.9847C228.675 31.5031 227.285 31.7623 225.69 31.7623H223.199V35.9423H217.378V18.9309H225.69ZM225.32 27.3394C226.109 27.3394 226.701 27.1692 227.096 26.829C227.491 26.4726 227.688 25.9784 227.688 25.3466C227.688 24.7147 227.491 24.2287 227.096 23.8885C226.701 23.532 226.109 23.3538 225.32 23.3538H223.199V27.3394H225.32Z" fill="#2DC156"/>
<path d="M244.345 36.3311C242.486 36.3311 240.817 35.9504 239.337 35.1889C237.858 34.4274 236.698 33.3744 235.86 32.0296C235.021 30.6687 234.602 29.1377 234.602 27.4366C234.602 25.7354 235.021 24.2125 235.86 22.8678C236.698 21.5069 237.858 20.4457 239.337 19.6842C240.817 18.9228 242.486 18.542 244.345 18.542C246.203 18.542 247.872 18.9228 249.352 19.6842C250.831 20.4457 251.991 21.5069 252.829 22.8678C253.668 24.2125 254.087 25.7354 254.087 27.4366C254.087 29.1377 253.668 30.6687 252.829 32.0296C251.991 33.3744 250.831 34.4274 249.352 35.1889C247.872 35.9504 246.203 36.3311 244.345 36.3311ZM244.345 31.6894C245.068 31.6894 245.718 31.5193 246.293 31.1791C246.885 30.8226 247.354 30.3285 247.699 29.6967C248.044 29.0486 248.217 28.2952 248.217 27.4366C248.217 26.5779 248.044 25.8326 247.699 25.2008C247.354 24.5527 246.885 24.0586 246.293 23.7184C245.718 23.3619 245.068 23.1837 244.345 23.1837C243.621 23.1837 242.963 23.3619 242.371 23.7184C241.796 24.0586 241.335 24.5527 240.99 25.2008C240.645 25.8326 240.472 26.5779 240.472 27.4366C240.472 28.2952 240.645 29.0486 240.99 29.6967C241.335 30.3285 241.796 30.8226 242.371 31.1791C242.963 31.5193 243.621 31.6894 244.345 31.6894Z" fill="#2DC156"/>
<path d="M120.496 31.495V39.2717H115.168V35.9423H105.351V39.2717H100.023V31.495H100.517C101.52 31.495 102.227 30.8713 102.638 29.6237C103.049 28.3762 103.312 26.5374 103.427 24.1072L103.624 18.9309H118.226V31.495H120.496ZM108.484 24.5932C108.418 26.2296 108.286 27.6229 108.089 28.7732C107.892 29.9073 107.587 30.8145 107.176 31.495H112.504V23.3781H108.533L108.484 24.5932Z" fill="white"/>
<path d="M130.763 18.9309C132.358 18.9309 133.747 19.1901 134.931 19.7085C136.115 20.227 137.028 20.9722 137.669 21.9443C138.31 22.9164 138.631 24.0505 138.631 25.3466C138.631 26.6427 138.31 27.7768 137.669 28.7489C137.028 29.721 136.115 30.4662 134.931 30.9847C133.747 31.5031 132.358 31.7623 130.763 31.7623H128.271V35.9423H122.45V18.9309H130.763ZM130.393 27.3394C131.182 27.3394 131.774 27.1692 132.169 26.829C132.563 26.4726 132.76 25.9784 132.76 25.3466C132.76 24.7147 132.563 24.2287 132.169 23.8885C131.774 23.532 131.182 23.3538 130.393 23.3538H128.271V27.3394H130.393Z" fill="white"/>
<path d="M149.417 36.3311C147.559 36.3311 145.89 35.9504 144.41 35.1889C142.93 34.4274 141.771 33.3744 140.932 32.0296C140.094 30.6687 139.674 29.1377 139.674 27.4366C139.674 25.7354 140.094 24.2125 140.932 22.8678C141.771 21.5069 142.93 20.4457 144.41 19.6842C145.89 18.9228 147.559 18.542 149.417 18.542C151.275 18.542 152.944 18.9228 154.424 19.6842C155.904 20.4457 157.063 21.5069 157.902 22.8678C158.74 24.2125 159.16 25.7354 159.16 27.4366C159.16 29.1377 158.74 30.6687 157.902 32.0296C157.063 33.3744 155.904 34.4274 154.424 35.1889C152.944 35.9504 151.275 36.3311 149.417 36.3311ZM149.417 31.6894C150.141 31.6894 150.79 31.5193 151.366 31.1791C151.958 30.8226 152.426 30.3285 152.771 29.6967C153.117 29.0486 153.289 28.2952 153.289 27.4366C153.289 26.5779 153.117 25.8326 152.771 25.2008C152.426 24.5527 151.958 24.0586 151.366 23.7184C150.79 23.3619 150.141 23.1837 149.417 23.1837C148.694 23.1837 148.036 23.3619 147.444 23.7184C146.868 24.0586 146.408 24.5527 146.063 25.2008C145.717 25.8326 145.545 26.5779 145.545 27.4366C145.545 28.2952 145.717 29.0486 146.063 29.6967C146.408 30.3285 146.868 30.8226 147.444 31.1791C148.036 31.5193 148.694 31.6894 149.417 31.6894Z" fill="white"/>
<path d="M178.274 18.9309V35.9423H172.453V29.6724H167.076V35.9423H161.255V18.9309H167.076V24.9578H172.453V18.9309H178.274Z" fill="white"/>
</svg>
