<svg width="16" height="16" viewBox="0 0 16 16" fill="none" xmlns="http://www.w3.org/2000/svg">
<g clip-path="url(#clip0_3258_53)">
<path d="M9.46681 10.8413C7.52596 10.0185 5.98242 8.47141 5.16414 6.52866L7.43481 4.258L3.25814 0.0813293L1.14414 2.19533C0.777344 2.56386 0.487352 3.00153 0.290974 3.48298C0.094597 3.96442 -0.00425796 4.48006 0.000140588 5C0.000140588 9.832 6.16814 16 11.0001 16C11.5201 16.0044 12.0357 15.9055 12.5172 15.7092C12.9986 15.5128 13.4363 15.2228 13.8048 14.856L15.9188 12.742L11.7421 8.56533L9.46681 10.8413ZM12.8628 13.9133C12.6176 14.1559 12.3267 14.3474 12.007 14.4767C11.6872 14.606 11.345 14.6706 11.0001 14.6667C6.84481 14.6667 1.33347 9.15533 1.33347 5C1.32966 4.65523 1.39428 4.31314 1.52359 3.99352C1.6529 3.6739 1.84434 3.38312 2.08681 3.138L3.25814 1.96666L5.54947 4.258L3.59281 6.21466L3.75681 6.624C4.23749 7.91018 4.98904 9.07801 5.96052 10.0483C6.932 11.0187 8.10072 11.7688 9.38747 12.248L9.79147 12.402L11.7421 10.4507L14.0335 12.742L12.8628 13.9133Z" fill="#282828"/>
<path d="M16 4.66667V1.66667C16.0021 1.22733 15.8299 0.805102 15.521 0.492636C15.2122 0.18017 14.792 0.00299675 14.3527 0H11.3333V1.33333H13.7433L10 5.08L10.9393 6.02267L14.6667 2.29533V4.66667H16Z" fill="#03DA80"/>
</g>
<defs>
<clipPath id="clip0_3258_53">
<rect width="16" height="16" fill="white"/>
</clipPath>
</defs>
</svg>
